<svg width="21" height="20" viewBox="0 0 21 20" fill="none" xmlns="http://www.w3.org/2000/svg">
<path fill-rule="evenodd" clip-rule="evenodd" d="M19.6363 8.95209L18.4216 7.44491C18.2304 7.19746 18.1066 6.90502 18.0729 6.57884L17.8592 4.66674C17.8158 4.28493 17.6443 3.92911 17.3726 3.6574C17.1009 3.38569 16.7451 3.21415 16.3633 3.1708L14.4512 2.95709C14.1137 2.92335 13.8213 2.77713 13.5738 2.58592L12.0667 1.37117C11.448 0.876276 10.5707 0.876276 9.95209 1.37117L8.44491 2.58592C8.19746 2.77713 7.90502 2.90085 7.57884 2.9346L5.66674 3.1483C4.8794 3.23828 4.26078 3.8569 4.1708 4.64424L3.95709 6.55634C3.92335 6.89377 3.77713 7.18621 3.58592 7.43366L2.37117 8.94085C1.87628 9.55947 1.87628 10.4368 2.37117 11.0554L3.58592 12.5626C3.77713 12.81 3.90085 13.1025 3.9346 13.4287L4.1483 15.3408C4.23828 16.1281 4.8569 16.7467 5.64424 16.8367L7.55634 17.0504C7.89377 17.0842 8.18621 17.2304 8.43366 17.4216L9.94085 18.6363C10.5595 19.1312 11.4368 19.1312 12.0554 18.6363L13.5626 17.4216C13.81 17.2304 14.1025 17.1066 14.4287 17.0729L16.3408 16.8592C17.1281 16.7692 17.7467 16.1506 17.8367 15.3633L18.0504 13.4512C18.0842 13.1137 18.2304 12.8213 18.4216 12.5738L19.6363 11.0667C20.1312 10.448 20.1312 9.57071 19.6363 8.95209ZM9.32223 14.5084L5.38555 10.5718L7.07269 8.88461L9.32223 11.1341L14.9461 5.51031L16.6332 7.2537L9.32223 14.5084Z" fill="#732FCB"/>
</svg>
