<svg width="24" height="25" viewBox="0 0 24 25" fill="none" xmlns="http://www.w3.org/2000/svg">
<path d="M6.74707 4.49998H10.2111C10.4011 4.50004 10.584 4.57222 10.7229 4.70195C10.8617 4.83168 10.9461 5.00928 10.9591 5.19886C10.972 5.38844 10.9126 5.57587 10.7926 5.72328C10.6727 5.87068 10.5013 5.96708 10.3131 5.99298L10.2111 5.99998H6.74707C6.17711 5.99989 5.62835 6.21612 5.21164 6.60498C4.79493 6.99385 4.54133 7.52637 4.50207 8.09498L4.49707 8.24998V17.75C4.49725 18.3199 4.71373 18.8686 5.10278 19.2851C5.49183 19.7016 6.02445 19.955 6.59307 19.994L6.74707 20H16.2471C16.8174 20.0003 17.3665 19.784 17.7835 19.395C18.2004 19.0059 18.454 18.4729 18.4931 17.904L18.4981 17.75V17.252C18.4981 17.062 18.5703 16.879 18.7 16.7402C18.8298 16.6013 19.0074 16.5169 19.197 16.504C19.3865 16.491 19.574 16.5505 19.7214 16.6704C19.8688 16.7903 19.9652 16.9617 19.9911 17.15L19.9981 17.252V17.75C19.9979 18.71 19.6295 19.6333 18.9689 20.3299C18.3083 21.0264 17.4057 21.443 16.4471 21.494L16.2471 21.5H6.74707C5.78691 21.5001 4.8633 21.1318 4.16656 20.4712C3.46981 19.8105 3.05302 18.9078 3.00207 17.949L2.99707 17.749V8.24898C2.99724 7.28915 3.36544 6.36593 4.02586 5.66943C4.68627 4.97293 5.58861 4.55617 6.54707 4.50498L6.74707 4.49998ZM14.5011 7.04398V4.24998C14.501 4.11202 14.5389 3.97672 14.6108 3.85895C14.6826 3.74117 14.7856 3.6455 14.9083 3.58244C15.031 3.51939 15.1687 3.49139 15.3063 3.50155C15.4438 3.5117 15.576 3.5596 15.6881 3.63998L15.7701 3.70798L21.7651 9.45798C22.0451 9.72698 22.0701 10.158 21.8411 10.456L21.7651 10.541L15.7701 16.293C15.6705 16.3886 15.5465 16.4549 15.4118 16.4845C15.277 16.5142 15.1366 16.5061 15.0061 16.4611C14.8757 16.4161 14.7601 16.336 14.6723 16.2296C14.5844 16.1232 14.5276 15.9946 14.5081 15.858L14.5011 15.751V12.95L14.1811 12.943C11.5231 12.935 9.25107 14.027 7.31507 16.245C6.82007 16.812 5.89007 16.376 6.01007 15.632C6.83707 10.492 9.60907 7.58798 14.2001 7.07398L14.5011 7.04398Z" fill="#732FCB"/>
</svg>
