<svg width="16" height="22" viewBox="0 0 16 22" fill="none" xmlns="http://www.w3.org/2000/svg">
<g clip-path="url(#clip0_60078_12861)">
<path d="M8.94635 21.0864C11.0739 18.4238 15.9264 11.9705 15.9264 8.34574C15.9264 3.94954 12.3596 0.382812 7.96342 0.382812C3.56722 0.382812 0.000488281 3.94954 0.000488281 8.34574C0.000488281 11.9705 4.8529 18.4238 6.9805 21.0864C7.49062 21.721 8.43622 21.721 8.94635 21.0864V21.0864ZM7.96342 11.0001C6.4994 11.0001 5.30911 9.80976 5.30911 8.34574C5.30911 6.88173 6.4994 5.69143 7.96342 5.69143C9.42744 5.69143 10.6177 6.88173 10.6177 8.34574C10.6177 9.80976 9.42744 11.0001 7.96342 11.0001Z" fill="#5A00B2"/>
</g>
<defs>
<clipPath id="clip0_60078_12861">
<rect width="15.9259" height="21.2345" fill="white" transform="translate(0 0.382812)"/>
</clipPath>
</defs>
</svg>
