<svg width="18" height="18" viewBox="0 0 18 18" fill="none" xmlns="http://www.w3.org/2000/svg">
<path fill-rule="evenodd" clip-rule="evenodd" d="M14.5804 3.41542C13.8523 2.687 12.9873 2.10979 12.0353 1.717C11.0833 1.32421 10.0629 1.12361 9.03305 1.12675C4.71094 1.12675 1.1925 4.62761 1.19074 8.93143C1.18883 10.3019 1.55007 11.6483 2.2377 12.8338L1.125 16.8767L5.28223 15.7915C6.43297 16.4149 7.72113 16.7411 9.02988 16.7407H9.03305C13.3548 16.7407 16.8729 13.2395 16.875 8.936C16.8776 7.90964 16.6761 6.893 16.2822 5.94524C15.8882 4.99748 15.3097 4.13753 14.5804 3.41542V3.41542ZM9.03305 15.4234H9.03024C7.86353 15.4237 6.71805 15.1115 5.71289 14.5192L5.47488 14.3785L3.00797 15.0226L3.66645 12.6288L3.51141 12.3827C2.85904 11.3499 2.51341 10.153 2.51473 8.93143C2.51473 5.35499 5.44008 2.4451 9.03551 2.4451C10.7603 2.44202 12.4156 3.12416 13.6375 4.34148C14.8594 5.55879 15.5477 7.21159 15.551 8.93636C15.5496 12.5132 12.6257 15.4234 9.03305 15.4234V15.4234ZM12.6081 10.5651C12.4123 10.4674 11.4479 9.99561 11.2693 9.93058C11.0907 9.86554 10.9589 9.83284 10.8285 10.0283C10.698 10.2238 10.3222 10.6611 10.208 10.793C10.0937 10.9248 9.97946 10.9392 9.78363 10.8415C9.58781 10.7437 8.95606 10.5381 8.20758 9.87362C7.62504 9.35647 7.23199 8.71804 7.11774 8.52292C7.00348 8.3278 7.10543 8.22198 7.20352 8.12495C7.29176 8.03741 7.39934 7.89714 7.49742 7.78323C7.59551 7.66932 7.6282 7.58776 7.69324 7.45768C7.75828 7.32761 7.72594 7.2137 7.67707 7.11632C7.6282 7.01893 7.23621 6.05882 7.07309 5.66823C6.91383 5.28784 6.75246 5.33952 6.63223 5.33354C6.51797 5.32792 6.38613 5.32651 6.25641 5.32651C6.15724 5.32909 6.05966 5.35209 5.96977 5.39407C5.87989 5.43605 5.79962 5.49611 5.73399 5.5705C5.55434 5.76596 5.04809 6.23846 5.04809 7.19753C5.04809 8.15659 5.75121 9.08472 5.84824 9.21479C5.94527 9.34487 7.22988 11.3147 9.19547 12.1595C9.56046 12.3158 9.93339 12.4529 10.3127 12.5701C10.7821 12.7185 11.2092 12.6977 11.5467 12.6475C11.9232 12.5916 12.7069 12.1757 12.8697 11.72C13.0324 11.2644 13.0328 10.8742 12.9839 10.793C12.935 10.7117 12.8043 10.6625 12.6081 10.5651V10.5651Z" fill="white"/>
</svg>
