<svg width="15" height="15" viewBox="0 0 15 15" fill="none" xmlns="http://www.w3.org/2000/svg">
<g clip-path="url(#clip0_60042_11557)">
<path d="M1.29406 1.28805L1.9348 0.732738C2.67318 -0.00563937 3.86923 -0.00563937 4.6076 0.732738C4.62591 0.751045 5.75484 2.2217 5.75484 2.2217C6.4505 2.95397 6.4505 4.10731 5.75484 4.83348L5.04697 5.72442C5.9379 7.74428 7.32313 9.1356 9.27586 9.96551L10.1668 9.25154C10.893 8.54978 12.0524 8.54978 12.7786 9.25154C12.7786 9.25154 14.2492 10.3805 14.2675 10.3988C15.0059 11.1372 15.0059 12.3332 14.298 13.0411L13.6878 13.7428C12.9861 14.4446 12.0402 14.829 11.015 14.829C6.35286 14.829 0.177337 8.64742 0.177337 3.99136C0.177337 2.97228 0.561782 2.02032 1.29406 1.29415V1.28805ZM11.015 13.6025C11.7107 13.6025 12.3514 13.3462 12.7908 12.9007L13.401 12.199C13.6512 11.9488 13.6634 11.5399 13.4254 11.2775C13.4254 11.2775 11.967 10.1547 11.9487 10.1364C11.6985 9.88618 11.2591 9.88618 11.0028 10.1364C10.9845 10.1547 9.75794 11.1372 9.75794 11.1372C9.58708 11.2714 9.36129 11.308 9.15992 11.2287C6.63357 10.2645 4.82118 8.45824 3.77769 5.85256C3.69836 5.65119 3.72887 5.4193 3.86923 5.24234C3.86923 5.24234 4.8517 4.00967 4.8639 3.99747C5.1263 3.73507 5.1263 3.31401 4.8639 3.05161C4.84559 3.0333 3.72277 1.57486 3.72277 1.57486C3.46037 1.33687 3.05152 1.34297 2.77081 1.62367L2.13007 2.17898C1.6602 2.64886 1.3978 3.2896 1.3978 3.98526C1.3978 8.23246 7.35974 13.6025 11.015 13.6025Z" fill="#1E1A23"/>
</g>
<defs>
<clipPath id="clip0_60042_11557">
<rect width="14.6455" height="14.6455" fill="white" transform="matrix(-1 0 0 1 14.8228 0.177246)"/>
</clipPath>
</defs>
</svg>
