<svg width="35" height="35" viewBox="0 0 35 35" fill="none" xmlns="http://www.w3.org/2000/svg">
<rect width="35" height="35" rx="8" fill="#FFF3E7"/>
<path d="M11.35 22.6C12.2 21.95 13.15 21.4375 14.2 21.0625C15.25 20.6875 16.35 20.5 17.5 20.5C18.65 20.5 19.75 20.6875 20.8 21.0625C21.85 21.4375 22.8 21.95 23.65 22.6C24.2333 21.9167 24.6875 21.1417 25.0125 20.275C25.3375 19.4083 25.5 18.4833 25.5 17.5C25.5 15.2833 24.7208 13.3958 23.1625 11.8375C21.6042 10.2792 19.7167 9.5 17.5 9.5C15.2833 9.5 13.3958 10.2792 11.8375 11.8375C10.2792 13.3958 9.5 15.2833 9.5 17.5C9.5 18.4833 9.6625 19.4083 9.9875 20.275C10.3125 21.1417 10.7667 21.9167 11.35 22.6ZM17.5 18.5C16.5167 18.5 15.6875 18.1625 15.0125 17.4875C14.3375 16.8125 14 15.9833 14 15C14 14.0167 14.3375 13.1875 15.0125 12.5125C15.6875 11.8375 16.5167 11.5 17.5 11.5C18.4833 11.5 19.3125 11.8375 19.9875 12.5125C20.6625 13.1875 21 14.0167 21 15C21 15.9833 20.6625 16.8125 19.9875 17.4875C19.3125 18.1625 18.4833 18.5 17.5 18.5ZM17.5 27.5C16.1167 27.5 14.8167 27.2375 13.6 26.7125C12.3833 26.1875 11.325 25.475 10.425 24.575C9.525 23.675 8.8125 22.6167 8.2875 21.4C7.7625 20.1833 7.5 18.8833 7.5 17.5C7.5 16.1167 7.7625 14.8167 8.2875 13.6C8.8125 12.3833 9.525 11.325 10.425 10.425C11.325 9.525 12.3833 8.8125 13.6 8.2875C14.8167 7.7625 16.1167 7.5 17.5 7.5C18.8833 7.5 20.1833 7.7625 21.4 8.2875C22.6167 8.8125 23.675 9.525 24.575 10.425C25.475 11.325 26.1875 12.3833 26.7125 13.6C27.2375 14.8167 27.5 16.1167 27.5 17.5C27.5 18.8833 27.2375 20.1833 26.7125 21.4C26.1875 22.6167 25.475 23.675 24.575 24.575C23.675 25.475 22.6167 26.1875 21.4 26.7125C20.1833 27.2375 18.8833 27.5 17.5 27.5ZM17.5 25.5C18.3833 25.5 19.2167 25.3708 20 25.1125C20.7833 24.8542 21.5 24.4833 22.15 24C21.5 23.5167 20.7833 23.1458 20 22.8875C19.2167 22.6292 18.3833 22.5 17.5 22.5C16.6167 22.5 15.7833 22.6292 15 22.8875C14.2167 23.1458 13.5 23.5167 12.85 24C13.5 24.4833 14.2167 24.8542 15 25.1125C15.7833 25.3708 16.6167 25.5 17.5 25.5ZM17.5 16.5C17.9333 16.5 18.2917 16.3583 18.575 16.075C18.8583 15.7917 19 15.4333 19 15C19 14.5667 18.8583 14.2083 18.575 13.925C18.2917 13.6417 17.9333 13.5 17.5 13.5C17.0667 13.5 16.7083 13.6417 16.425 13.925C16.1417 14.2083 16 14.5667 16 15C16 15.4333 16.1417 15.7917 16.425 16.075C16.7083 16.3583 17.0667 16.5 17.5 16.5Z" fill="#FD8405"/>
</svg>
