<svg width="17" height="16" viewBox="0 0 17 16" fill="none" xmlns="http://www.w3.org/2000/svg">
<path d="M13.3631 15.9545C12.7939 16.3802 9.14148 13.6816 8.44196 13.6757C7.74244 13.6698 4.04891 16.3063 3.48632 15.871C2.92373 15.4357 4.24635 10.965 4.03557 10.2667C3.8248 9.5684 0.288465 6.70531 0.509983 6.01062C0.73155 5.31592 5.20138 5.2514 5.77061 4.82569C6.33984 4.40004 7.84783 -0.00587399 8.5474 5.87984e-06C9.24687 0.00593688 10.6867 4.43675 11.2493 4.87202C11.8119 5.30723 16.2802 5.44732 16.4911 6.14565C16.7018 6.84397 13.1219 9.64693 12.9003 10.3416C12.6788 11.0363 13.9324 15.5288 13.3631 15.9545Z" fill="white"/>
</svg>
