<svg width="36" height="36" viewBox="0 0 36 36" fill="none" xmlns="http://www.w3.org/2000/svg">
<rect x="0.5" y="0.5" width="35" height="35" rx="17.5" fill="#FD8405"/>
<rect x="0.5" y="0.5" width="35" height="35" rx="17.5" stroke="#FD8405"/>
<path d="M25.95 27C23.8667 27 21.8083 26.546 19.775 25.638C17.7417 24.73 15.8917 23.4423 14.225 21.775C12.5583 20.1077 11.271 18.2577 10.363 16.225C9.455 14.1923 9.00067 12.134 9 10.05C9 9.75 9.1 9.5 9.3 9.3C9.5 9.1 9.75 9 10.05 9H14.1C14.3333 9 14.5417 9.07933 14.725 9.238C14.9083 9.39667 15.0167 9.584 15.05 9.8L15.7 13.3C15.7333 13.5667 15.725 13.7917 15.675 13.975C15.625 14.1583 15.5333 14.3167 15.4 14.45L12.975 16.9C13.3083 17.5167 13.704 18.1123 14.162 18.687C14.62 19.2617 15.1243 19.816 15.675 20.35C16.1917 20.8667 16.7333 21.346 17.3 21.788C17.8667 22.23 18.4667 22.634 19.1 23L21.45 20.65C21.6 20.5 21.796 20.3877 22.038 20.313C22.28 20.2383 22.5173 20.2173 22.75 20.25L26.2 20.95C26.4333 21.0167 26.625 21.1377 26.775 21.313C26.925 21.4883 27 21.684 27 21.9V25.95C27 26.25 26.9 26.5 26.7 26.7C26.5 26.9 26.25 27 25.95 27Z" fill="white"/>
</svg>
