<svg width="35" height="35" viewBox="0 0 35 35" fill="none" xmlns="http://www.w3.org/2000/svg">
<g clip-path="url(#clip0_58524_4730)">
<rect width="35" height="35" rx="8" fill="#FFF3E7"/>
<path d="M11.5 24.25H14.5V19.25C14.5 18.9667 14.596 18.7293 14.788 18.538C14.98 18.3467 15.2173 18.2507 15.5 18.25H19.5C19.7833 18.25 20.021 18.346 20.213 18.538C20.405 18.73 20.5007 18.9673 20.5 19.25V24.25H23.5V15.25L17.5 10.75L11.5 15.25V24.25ZM9.5 24.25V15.25C9.5 14.9333 9.571 14.6333 9.713 14.35C9.855 14.0667 10.0507 13.8333 10.3 13.65L16.3 9.15C16.65 8.88333 17.05 8.75 17.5 8.75C17.95 8.75 18.35 8.88333 18.7 9.15L24.7 13.65C24.95 13.8333 25.146 14.0667 25.288 14.35C25.43 14.6333 25.5007 14.9333 25.5 15.25V24.25C25.5 24.8 25.304 25.271 24.912 25.663C24.52 26.055 24.0493 26.2507 23.5 26.25H19.5C19.2167 26.25 18.9793 26.154 18.788 25.962C18.5967 25.77 18.5007 25.5327 18.5 25.25V20.25H16.5V25.25C16.5 25.5333 16.404 25.771 16.212 25.963C16.02 26.155 15.7827 26.2507 15.5 26.25H11.5C10.95 26.25 10.4793 26.0543 10.088 25.663C9.69667 25.2717 9.50067 24.8007 9.5 24.25Z" fill="#FD8405"/>
</g>
<defs>
<clipPath id="clip0_58524_4730">
<rect width="35" height="35" rx="8" fill="white"/>
</clipPath>
</defs>
</svg>
