<svg width="35" height="35" viewBox="0 0 35 35" fill="none" xmlns="http://www.w3.org/2000/svg">
<rect width="35" height="35" rx="8" fill="#FFF3E7"/>
<g clip-path="url(#clip0_58036_2485)">
<path d="M27.299 12.665L24.924 10.835C24.7626 10.7314 24.5871 10.6516 24.403 10.598C24.2197 10.5382 24.0287 10.5052 23.836 10.5H17L17.801 15.5H23.836C24 15.5 24.205 15.463 24.402 15.402C24.599 15.341 24.789 15.257 24.923 15.166L27.298 13.334C27.433 13.243 27.5 13.122 27.5 13C27.5 12.878 27.433 12.757 27.299 12.665ZM16 8.5H15C14.8674 8.5 14.7402 8.55268 14.6464 8.64645C14.5527 8.74021 14.5 8.86739 14.5 9V12.5H11.164C10.998 12.5 10.794 12.537 10.597 12.599C10.399 12.659 10.21 12.742 10.076 12.835L7.701 14.665C7.566 14.756 7.5 14.878 7.5 15C7.5 15.121 7.566 15.242 7.701 15.335L10.076 17.167C10.21 17.258 10.399 17.342 10.597 17.402C10.794 17.463 10.998 17.5 11.164 17.5H14.5V26C14.5 26.1326 14.5527 26.2598 14.6464 26.3536C14.7402 26.4473 14.8674 26.5 15 26.5H16C16.1326 26.5 16.2598 26.4473 16.3536 26.3536C16.4473 26.2598 16.5 26.1326 16.5 26V9C16.5 8.86739 16.4473 8.74021 16.3536 8.64645C16.2598 8.55268 16.1326 8.5 16 8.5Z" fill="#FD8405"/>
</g>
<defs>
<clipPath id="clip0_58036_2485">
<rect width="20" height="20" fill="white" transform="translate(7.5 7.5)"/>
</clipPath>
</defs>
</svg>
