<svg width="35" height="35" viewBox="0 0 35 35" fill="none" xmlns="http://www.w3.org/2000/svg">
<rect width="35" height="35" rx="8" fill="#FFF3E7"/>
<path d="M25.45 26.5C23.3667 26.5 21.3083 26.046 19.275 25.138C17.2417 24.23 15.3917 22.9423 13.725 21.275C12.0583 19.6077 10.771 17.7577 9.863 15.725C8.955 13.6923 8.50067 11.634 8.5 9.55C8.5 9.25 8.6 9 8.8 8.8C9 8.6 9.25 8.5 9.55 8.5H13.6C13.8333 8.5 14.0417 8.57933 14.225 8.738C14.4083 8.89667 14.5167 9.084 14.55 9.3L15.2 12.8C15.2333 13.0667 15.225 13.2917 15.175 13.475C15.125 13.6583 15.0333 13.8167 14.9 13.95L12.475 16.4C12.8083 17.0167 13.204 17.6123 13.662 18.187C14.12 18.7617 14.6243 19.316 15.175 19.85C15.6917 20.3667 16.2333 20.846 16.8 21.288C17.3667 21.73 17.9667 22.134 18.6 22.5L20.95 20.15C21.1 20 21.296 19.8877 21.538 19.813C21.78 19.7383 22.0173 19.7173 22.25 19.75L25.7 20.45C25.9333 20.5167 26.125 20.6377 26.275 20.813C26.425 20.9883 26.5 21.184 26.5 21.4V25.45C26.5 25.75 26.4 26 26.2 26.2C26 26.4 25.75 26.5 25.45 26.5Z" fill="#FD8405"/>
</svg>
