<svg width="17" height="16" viewBox="0 0 17 16" fill="none" xmlns="http://www.w3.org/2000/svg">
<path d="M11.5 13.59L10.205 12.295L9.5 13L11.5 15L15.5 11L14.795 10.295L11.5 13.59Z" fill="white"/>
<path d="M13 2.5H11.5V2C11.4992 1.73503 11.3936 1.48113 11.2062 1.29377C11.0189 1.1064 10.765 1.00079 10.5 1H6.5C6.23503 1.00079 5.98113 1.1064 5.79377 1.29377C5.6064 1.48113 5.50079 1.73503 5.5 2V2.5H4C3.73503 2.50079 3.48113 2.6064 3.29377 2.79377C3.1064 2.98113 3.00079 3.23503 3 3.5V14C3.00079 14.265 3.1064 14.5189 3.29377 14.7062C3.48113 14.8936 3.73503 14.9992 4 15H8.5V14H4V3.5H5.5V5H11.5V3.5H13V9H14V3.5C13.9992 3.23503 13.8936 2.98113 13.7062 2.79377C13.5189 2.6064 13.265 2.50079 13 2.5ZM10.5 4H6.5V2H10.5V4Z" fill="white"/>
</svg>
